# xmcd CD database generated by RipIT
#
# Track frame offsets:
# 150
# 27270
# 39447
# 56727
# 81845
# 102612
# 113192
# 138695
# 148555
# 164055
# 185645
# 210652
# 223617
#
# Disc length: 3259 seconds
#
# Revision: 0
# Processed by: cddbd v1.5.2PL0 Copyright (c) Steve Scherf et al.
# Submitted via: RipIT 4.0.0-beta20140508 www.suwald.com/ripit/ripit.html on 2019-04-28 at 13:15
#
DISCID=ca0cb90d
DTITLE=Various Artist - The Music of NUBENEGRA
DYEAR=1998
DGENRE=Folk
TTITLE0=Bidinte - Ami cu Awini (radio edit)
TTITLE1=La Sal de la Vida - N'Nau Da un Beijo
TTITLE2=Luis Delgado - Bebiendo al Alba
TTITLE3=Omara Portuondo - Ausencia
TTITLE4=Zezo Ribeiro - Gandaia
TTITLE5=Gema y Pavel - Aixa
TTITLE6=Vieja Trova Santiaguera - El Tren
TTITLE7=Marcelino Guerra - Cuando se Canta Benito
TTITLE8=Mestisay - Canciones del Sur
TTITLE9=Maria Salgado - Mirandote
TTITLE10=Septeto Santiaguero - Alma de Coral
TTITLE11=Rasha - Azara al Hay (Mare Magnum Single-Edit)
TTITLE12=Aziza Brahm - Dios Mio
EXTD=
EXTT0=
EXTT1=
EXTT2=
EXTT3=
EXTT4=
EXTT5=
EXTT6=
EXTT7=
EXTT8=
EXTT9=
EXTT10=
EXTT11=
EXTT12=
PLAYORDER=
